<svg width="25" height="25" viewBox="0 0 25 25" fill="none" xmlns="http://www.w3.org/2000/svg">
<path d="M7.8751 2.78906C7.8751 2.59015 7.79608 2.39938 7.65543 2.25873C7.51478 2.11808 7.32401 2.03906 7.1251 2.03906C6.92619 2.03906 6.73542 2.11808 6.59477 2.25873C6.45412 2.39938 6.3751 2.59015 6.3751 2.78906V4.36906C4.9351 4.48406 3.9911 4.76606 3.2971 5.46106C2.6021 6.15506 2.3201 7.10006 2.2041 8.53906H22.0461C21.9301 7.09906 21.6481 6.15506 20.9531 5.46106C20.2591 4.76606 19.3141 4.48406 17.8751 4.36806V2.78906C17.8751 2.59015 17.7961 2.39938 17.6554 2.25873C17.5148 2.11808 17.324 2.03906 17.1251 2.03906C16.9262 2.03906 16.7354 2.11808 16.5948 2.25873C16.4541 2.39938 16.3751 2.59015 16.3751 2.78906V4.30206C15.7101 4.28906 14.9641 4.28906 14.1251 4.28906H10.1251C9.2861 4.28906 8.5401 4.28906 7.8751 4.30206V2.78906Z" fill="#00A6A6"/>
<path fill-rule="evenodd" clip-rule="evenodd" d="M2.125 12.2891C2.125 11.4501 2.125 10.7041 2.138 10.0391H22.112C22.125 10.7041 22.125 11.4501 22.125 12.2891V14.2891C22.125 18.0601 22.125 19.9461 20.953 21.1171C19.781 22.2881 17.896 22.2891 14.125 22.2891H10.125C6.354 22.2891 4.468 22.2891 3.297 21.1171C2.126 19.9451 2.125 18.0601 2.125 14.2891V12.2891ZM17.125 14.2891C17.3902 14.2891 17.6446 14.1837 17.8321 13.9962C18.0196 13.8086 18.125 13.5543 18.125 13.2891C18.125 13.0238 18.0196 12.7695 17.8321 12.582C17.6446 12.3944 17.3902 12.2891 17.125 12.2891C16.8598 12.2891 16.6054 12.3944 16.4179 12.582C16.2304 12.7695 16.125 13.0238 16.125 13.2891C16.125 13.5543 16.2304 13.8086 16.4179 13.9962C16.6054 14.1837 16.8598 14.2891 17.125 14.2891ZM17.125 18.2891C17.3902 18.2891 17.6446 18.1837 17.8321 17.9962C18.0196 17.8086 18.125 17.5543 18.125 17.2891C18.125 17.0238 18.0196 16.7695 17.8321 16.582C17.6446 16.3944 17.3902 16.2891 17.125 16.2891C16.8598 16.2891 16.6054 16.3944 16.4179 16.582C16.2304 16.7695 16.125 17.0238 16.125 17.2891C16.125 17.5543 16.2304 17.8086 16.4179 17.9962C16.6054 18.1837 16.8598 18.2891 17.125 18.2891ZM13.125 13.2891C13.125 13.5543 13.0196 13.8086 12.8321 13.9962C12.6446 14.1837 12.3902 14.2891 12.125 14.2891C11.8598 14.2891 11.6054 14.1837 11.4179 13.9962C11.2304 13.8086 11.125 13.5543 11.125 13.2891C11.125 13.0238 11.2304 12.7695 11.4179 12.582C11.6054 12.3944 11.8598 12.2891 12.125 12.2891C12.3902 12.2891 12.6446 12.3944 12.8321 12.582C13.0196 12.7695 13.125 13.0238 13.125 13.2891ZM13.125 17.2891C13.125 17.5543 13.0196 17.8086 12.8321 17.9962C12.6446 18.1837 12.3902 18.2891 12.125 18.2891C11.8598 18.2891 11.6054 18.1837 11.4179 17.9962C11.2304 17.8086 11.125 17.5543 11.125 17.2891C11.125 17.0238 11.2304 16.7695 11.4179 16.582C11.6054 16.3944 11.8598 16.2891 12.125 16.2891C12.3902 16.2891 12.6446 16.3944 12.8321 16.582C13.0196 16.7695 13.125 17.0238 13.125 17.2891ZM7.125 14.2891C7.39022 14.2891 7.64457 14.1837 7.83211 13.9962C8.01964 13.8086 8.125 13.5543 8.125 13.2891C8.125 13.0238 8.01964 12.7695 7.83211 12.582C7.64457 12.3944 7.39022 12.2891 7.125 12.2891C6.85978 12.2891 6.60543 12.3944 6.41789 12.582C6.23036 12.7695 6.125 13.0238 6.125 13.2891C6.125 13.5543 6.23036 13.8086 6.41789 13.9962C6.60543 14.1837 6.85978 14.2891 7.125 14.2891ZM7.125 18.2891C7.39022 18.2891 7.64457 18.1837 7.83211 17.9962C8.01964 17.8086 8.125 17.5543 8.125 17.2891C8.125 17.0238 8.01964 16.7695 7.83211 16.582C7.64457 16.3944 7.39022 16.2891 7.125 16.2891C6.85978 16.2891 6.60543 16.3944 6.41789 16.582C6.23036 16.7695 6.125 17.0238 6.125 17.2891C6.125 17.5543 6.23036 17.8086 6.41789 17.9962C6.60543 18.1837 6.85978 18.2891 7.125 18.2891Z" fill="#00A6A6"/>
</svg>
