<svg width="25" height="25" viewBox="0 0 25 25" fill="none" xmlns="http://www.w3.org/2000/svg">
<path d="M4.125 12.2891C4.125 10.1673 4.96785 8.1325 6.46815 6.63221C7.96844 5.13192 10.0033 4.28906 12.125 4.28906C14.2467 4.28906 16.2816 5.13192 17.7819 6.63221C19.2821 8.1325 20.125 10.1673 20.125 12.2891V17.3791C20.125 18.2271 20.125 18.6491 19.999 18.9881C19.8988 19.2567 19.742 19.5006 19.5393 19.7034C19.3366 19.9061 19.0926 20.0629 18.824 20.1631C18.485 20.2891 18.062 20.2891 17.215 20.2891H12.125C10.0033 20.2891 7.96844 19.4462 6.46815 17.9459C4.96785 16.4456 4.125 14.4108 4.125 12.2891Z" stroke="#00A6A6" stroke-width="2"/>
<path d="M9.125 11.2891H15.125M12.125 15.2891H15.125" stroke="#00A6A6" stroke-width="2" stroke-linecap="round" stroke-linejoin="round"/>
</svg>
