<svg width="30" height="30" viewBox="0 0 30 30" fill="none" xmlns="http://www.w3.org/2000/svg">
<path fill-rule="evenodd" clip-rule="evenodd" d="M19.5025 3.00009C19.2275 2.72509 18.8813 2.73759 18.6925 2.76259C18.5125 2.78759 18.2975 2.84759 18.0925 2.90634L17.9363 2.95009L17.8075 2.87009C17.6399 2.75775 17.4644 2.65749 17.2825 2.57009C17.0963 2.49009 16.7825 2.39759 16.45 2.57134C16.125 2.74259 16.0188 3.04759 15.975 3.24259C15.9376 3.44378 15.9125 3.64708 15.9 3.85134L15.8875 4.01009V4.02259L15.7475 4.13884C15.5813 4.27634 15.4075 4.41759 15.285 4.55134C15.155 4.69384 14.955 4.96009 15.0063 5.33259C15.0588 5.71634 15.3375 5.91509 15.5113 6.01259C15.6688 6.10009 15.875 6.17509 16.0688 6.24759L16.205 6.29759L16.255 6.43384C16.3263 6.62634 16.4025 6.83384 16.49 6.99134C16.5863 7.16634 16.7863 7.44384 17.17 7.49634C17.5413 7.54634 17.8075 7.34634 17.95 7.21634C18.085 7.09384 18.2263 6.92134 18.3638 6.75384L18.4788 6.61509H18.4913L18.6513 6.60259C18.8613 6.58509 19.0825 6.56759 19.26 6.52759C19.4538 6.48384 19.76 6.37759 19.9313 6.05259C20.105 5.72134 20.0125 5.40509 19.9313 5.21884C19.8439 5.03694 19.7436 4.86149 19.6313 4.69384L19.5513 4.56634L19.5963 4.40884C19.6578 4.21285 19.7054 4.01277 19.7388 3.81009C19.7638 3.62009 19.7763 3.27509 19.5013 3.00009M18.3763 4.12509L18.2788 4.15259L18.2538 4.16009C18.094 4.21287 17.9252 4.23285 17.7575 4.21884C17.5907 4.18987 17.4326 4.12364 17.295 4.02509L17.2725 4.01134L17.1475 3.93134L17.1338 4.10759L17.1313 4.13509C17.1252 4.30114 17.0861 4.46432 17.0163 4.61509C16.9322 4.7582 16.8204 4.88313 16.6875 4.98259L16.6675 5.00009L16.555 5.09384L16.65 5.13009L16.675 5.13759C16.7638 5.17009 16.9625 5.24009 17.1125 5.39009C17.2625 5.54009 17.3325 5.73759 17.3638 5.82759L17.3725 5.85259L17.4088 5.94884L17.5025 5.83509L17.5188 5.81384C17.5825 5.73509 17.7075 5.57884 17.8875 5.48509C18.0383 5.41523 18.2015 5.37614 18.3675 5.37009L18.395 5.36759L18.57 5.35509L18.4913 5.22759L18.4775 5.20634C18.379 5.06871 18.3127 4.91062 18.2838 4.74384C18.2697 4.57615 18.2897 4.40736 18.3425 4.24759L18.35 4.22259L18.3763 4.12509Z" fill="#EDEDED"/>
<path d="M13.0438 3.96215C13.1088 3.85708 13.1524 3.74018 13.1721 3.61819C13.1918 3.49619 13.1872 3.37151 13.1585 3.25131C13.1299 3.13111 13.0777 3.01775 13.0051 2.91777C12.9325 2.8178 12.8408 2.73316 12.7354 2.66874C12.6299 2.60431 12.5128 2.56137 12.3907 2.54238C12.2686 2.5234 12.1439 2.52873 12.0239 2.55809C11.9038 2.58745 11.7908 2.64025 11.6912 2.71346C11.5917 2.78666 11.5076 2.87883 11.4438 2.98465C11.1292 3.49943 10.997 4.10508 11.0684 4.70412C11.1398 5.30317 11.4107 5.86075 11.8375 6.28715L11.9588 6.40965C12.08 6.53104 12.1661 6.683 12.2079 6.84938C12.2497 7.01576 12.2457 7.19037 12.1963 7.35465C12.1243 7.59268 12.1499 7.84954 12.2673 8.06872C12.3848 8.28791 12.5845 8.45146 12.8225 8.5234C13.0605 8.59534 13.3174 8.56978 13.5366 8.45233C13.7558 8.33489 13.9193 8.13518 13.9913 7.89715C14.1387 7.40829 14.1509 6.8886 14.0265 6.39337C13.9022 5.89813 13.6459 5.44586 13.285 5.08465L13.1625 4.96215C13.0332 4.8331 12.9511 4.66421 12.9295 4.48276C12.908 4.30132 12.9482 4.11791 13.0438 3.96215ZM9.60751 4.92465C9.54513 4.86244 9.47111 4.81312 9.38967 4.77951C9.30823 4.7459 9.22097 4.72867 9.13287 4.72878C8.95495 4.72902 8.7844 4.79992 8.65876 4.9259C8.53311 5.05188 8.46266 5.22261 8.46289 5.40053C8.46313 5.57846 8.53403 5.749 8.66001 5.87465C8.72239 5.93686 8.79641 5.98618 8.87785 6.01979C8.95928 6.0534 9.04654 6.07063 9.13464 6.07052C9.22274 6.0704 9.30996 6.05293 9.39131 6.01911C9.47265 5.98529 9.54654 5.93578 9.60876 5.8734C9.67097 5.81102 9.72029 5.737 9.7539 5.65556C9.7875 5.57413 9.80474 5.48687 9.80463 5.39877C9.80451 5.31067 9.78704 5.22345 9.75322 5.1421C9.7194 5.06075 9.66989 4.98686 9.60751 4.92465ZM22.8475 7.00465C22.8962 6.76082 22.8461 6.50761 22.7082 6.30073C22.5702 6.09386 22.3557 5.95026 22.1119 5.90152C21.8681 5.85279 21.6148 5.90292 21.408 6.04087C21.2011 6.17883 21.0575 6.39332 21.0088 6.63715L20.8288 7.53715C20.7125 8.1159 20.295 8.58715 19.7363 8.77465C19.1478 8.97128 18.6217 9.31974 18.211 9.78482C17.8004 10.2499 17.5198 10.8151 17.3975 11.4234L17.2175 12.3234C17.1781 12.5632 17.2333 12.809 17.3716 13.0089C17.5099 13.2088 17.7204 13.3471 17.9587 13.3948C18.1971 13.4425 18.4446 13.3957 18.6491 13.2644C18.8536 13.1331 18.9992 12.9275 19.055 12.6909L19.2363 11.7909C19.3513 11.2121 19.7688 10.7409 20.3288 10.5534C20.9171 10.3565 21.4431 10.0078 21.8535 9.54245C22.264 9.07715 22.5443 8.51175 22.6663 7.9034L22.8475 7.00465Z" fill="#EDEDED"/>
<path fill-rule="evenodd" clip-rule="evenodd" d="M28.1551 11.0544C28.4739 11.7469 28.2589 12.5331 27.6751 13.1169C27.3364 13.4544 26.8826 13.6081 26.4789 13.6806C26.0651 13.7544 25.6289 13.7556 25.2451 13.7306C24.8057 13.7023 24.369 13.6409 23.9389 13.5469L23.8814 13.5344L23.8514 13.5269L23.8264 13.5206L23.8189 13.5194H23.8164L23.9664 12.9119L23.8164 13.5181C23.7058 13.491 23.6047 13.4341 23.5241 13.3537C23.4435 13.2733 23.3863 13.1724 23.3589 13.0619V13.0581L23.3564 13.0506L23.3501 13.0256C23.3192 12.8944 23.2925 12.7623 23.2701 12.6294C23.2094 12.2995 23.1676 11.9665 23.1451 11.6319C23.1137 11.2204 23.1309 10.8068 23.1964 10.3994C23.2689 9.99436 23.4214 9.54061 23.7601 9.20186C24.3439 8.61811 25.1301 8.40186 25.8226 8.72311C26.3476 8.96561 26.6901 9.45561 26.8176 10.0594C27.4214 10.1881 27.9114 10.5294 28.1551 11.0544ZM24.4951 12.3819C24.7176 12.4206 25.0114 12.4631 25.3251 12.4831C25.6539 12.5044 25.9814 12.4994 26.2589 12.4494C26.5464 12.3994 26.7101 12.3131 26.7901 12.2331C27.0939 11.9294 27.0714 11.6894 27.0201 11.5781C26.9639 11.4581 26.7651 11.2506 26.2526 11.2519C26.1701 11.2522 26.0884 11.2362 26.0121 11.2048C25.9358 11.1734 25.8665 11.1271 25.8082 11.0688C25.7498 11.0105 25.7036 10.9412 25.6722 10.8649C25.6408 10.7886 25.6248 10.7069 25.6251 10.6244C25.6276 10.1119 25.4189 9.91186 25.2989 9.85686C25.1876 9.80686 24.9476 9.78186 24.6439 10.0869C24.5639 10.1669 24.4776 10.3306 24.4276 10.6181C24.3799 10.927 24.3686 11.2404 24.3939 11.5519C24.4139 11.8644 24.4564 12.1594 24.4951 12.3819Z" fill="#EDEDED"/>
<path d="M25.4127 17.1627C25.5935 17.0017 25.8168 16.8961 26.0559 16.8584C26.295 16.8208 26.54 16.8526 26.7615 16.9502L27.1252 17.109C27.3532 17.2086 27.6113 17.2136 27.8429 17.1229C28.0745 17.0322 28.2606 16.8532 28.3602 16.6252C28.4599 16.3973 28.4649 16.1392 28.3741 15.9076C28.2834 15.6759 28.1044 15.4899 27.8765 15.3902L27.5127 15.2315C26.9635 14.9908 26.3567 14.9125 25.7643 15.006C25.1719 15.0995 24.6187 15.3608 24.1702 15.759C23.7627 16.1215 23.169 16.1815 22.6965 15.909L22.4315 15.7552C22.2163 15.6329 21.9614 15.6006 21.7225 15.6655C21.4836 15.7303 21.28 15.8871 21.1562 16.1015C21.0324 16.3159 20.9985 16.5705 21.0618 16.8099C21.125 17.0492 21.2804 17.2538 21.494 17.379L21.759 17.5315C22.3298 17.8618 22.9902 18.0038 23.6463 17.9374C24.3024 17.8709 24.9209 17.5995 25.414 17.1615M23.8227 19.1415C23.8851 19.0792 23.9592 19.0298 24.0406 18.9961C24.1221 18.9624 24.2094 18.9451 24.2976 18.9452C24.3857 18.9452 24.473 18.9627 24.5544 18.9965C24.6358 19.0302 24.7098 19.0797 24.7721 19.1421C24.8344 19.2045 24.8838 19.2785 24.9175 19.36C24.9512 19.4415 24.9685 19.5288 24.9684 19.6169C24.9684 19.7051 24.9509 19.7924 24.9172 19.8738C24.8834 19.9552 24.8339 20.0292 24.7715 20.0915C24.6455 20.2173 24.4747 20.2879 24.2967 20.2878C24.1186 20.2877 23.9479 20.2168 23.8221 20.0909C23.6963 19.9649 23.6257 19.7941 23.6258 19.6161C23.6259 19.438 23.6968 19.2673 23.8227 19.1415ZM16.1452 8.94649C16.0829 8.8842 16.009 8.83478 15.9276 8.80107C15.8462 8.76735 15.759 8.75 15.6709 8.75C15.5828 8.75 15.4955 8.76735 15.4141 8.80107C15.3327 8.83478 15.2588 8.8842 15.1965 8.94649C15.1342 9.00879 15.0848 9.08274 15.0511 9.16414C15.0174 9.24553 15 9.33277 15 9.42087C15 9.50897 15.0174 9.5962 15.0511 9.6776C15.0848 9.75899 15.1342 9.83295 15.1965 9.89524C15.2589 9.95754 15.3329 10.0069 15.4144 10.0406C15.4958 10.0743 15.5832 10.0916 15.6713 10.0916C15.7595 10.0915 15.8467 10.0741 15.9282 10.0403C16.0096 10.0065 16.0836 9.957 16.1459 9.89462C16.2082 9.83224 16.2576 9.7582 16.2912 9.67673C16.3249 9.59526 16.3422 9.50796 16.3422 9.4198C16.3421 9.33164 16.3247 9.24436 16.2909 9.16294C16.2571 9.08151 16.2076 9.00879 16.1452 8.94649ZM21.4465 12.6965C21.5088 12.6342 21.5827 12.5848 21.6641 12.5511C21.7455 12.5174 21.8328 12.5 21.9209 12.5C22.009 12.5 22.0962 12.5174 22.1776 12.5511C22.259 12.5848 22.3329 12.6342 22.3952 12.6965C22.4575 12.7588 22.507 12.8327 22.5407 12.9141C22.5744 12.9955 22.5917 13.0828 22.5917 13.1709C22.5917 13.259 22.5744 13.3462 22.5407 13.4276C22.507 13.509 22.4575 13.5829 22.3952 13.6452C22.2693 13.7711 22.0985 13.8417 21.9204 13.8416C21.7424 13.8414 21.5717 13.7706 21.4459 13.6446C21.3201 13.5186 21.2494 13.3478 21.2496 13.1698C21.2497 12.9918 21.3205 12.8223 21.4465 12.6965Z" fill="#EDEDED"/>
<path fill-rule="evenodd" clip-rule="evenodd" d="M12.0492 8.60719C12.7817 9.14969 13.6242 9.99469 14.6492 11.0172L18.983 15.3509C20.0067 16.3759 20.8505 17.2184 21.393 17.9509C21.9555 18.7084 22.3505 19.5497 22.1217 20.5184C21.893 21.4884 21.163 22.0634 20.3217 22.4897C19.508 22.9022 18.3767 23.2797 17.0042 23.7372L10.5167 25.8997C8.85423 26.4534 7.50423 26.9034 6.45798 27.0897C5.40298 27.2772 4.33298 27.2584 3.53673 26.4634C2.74173 25.6684 2.72298 24.5972 2.91048 23.5409C3.09673 22.4959 3.54673 21.1459 4.10048 19.4834L6.26298 12.9959C6.72048 11.6234 7.09798 10.4922 7.51048 9.67844C7.93548 8.83719 8.51173 8.10719 9.48173 7.87844C10.4517 7.64969 11.2917 8.04594 12.0492 8.60719ZM10.933 10.1134L10.868 10.0659L10.823 10.3159C10.6822 11.0976 10.5564 11.8819 10.4455 12.6684C10.1792 14.5622 9.95548 16.8522 10.0705 18.6072C10.1392 19.6697 10.3667 21.0447 10.5842 22.1784C10.6874 22.7174 10.7978 23.2549 10.9155 23.7909L14.2092 22.6909C14.1217 22.4347 14.0192 22.1034 13.9155 21.7197C13.6667 20.7947 13.4092 19.5222 13.4092 18.1947C13.4201 16.9842 13.5907 15.7805 13.9167 14.6147C14.0332 14.1858 14.1705 13.7628 14.328 13.3472L13.378 12.3972C12.2855 11.3059 11.5405 10.5634 10.933 10.1134ZM8.01673 13.6634C8.23269 13.0032 8.45813 12.346 8.69298 11.6922L8.58923 12.4084C8.31923 14.3247 8.07048 16.7734 8.19923 18.7297C8.27673 19.9147 8.52298 21.3834 8.74298 22.5297C8.86212 23.1499 8.99046 23.7683 9.12798 24.3847C7.82673 24.8147 6.86798 25.1122 6.13048 25.2434C5.22923 25.4034 4.98048 25.2547 4.86298 25.1372C4.74548 25.0197 4.59673 24.7709 4.75673 23.8697C4.91548 22.9759 5.31923 21.7572 5.90548 19.9997L8.01673 13.6634ZM16.3367 21.9834L15.988 22.0997C15.8035 21.5486 15.6511 20.9872 15.5317 20.4184C15.3755 19.6873 15.2926 18.9423 15.2842 18.1947C15.2955 17.0525 15.4714 15.9179 15.8067 14.8259L17.6017 16.6222C18.6942 17.7147 19.4367 18.4597 19.8867 19.0672C20.3292 19.6647 20.3355 19.9247 20.2967 20.0884C20.258 20.2522 20.1367 20.4822 19.4742 20.8172C18.7992 21.1597 17.8017 21.4947 16.3367 21.9834Z" fill="#EDEDED"/>
</svg>
