<svg width="25" height="25" viewBox="0 0 25 25" fill="none" xmlns="http://www.w3.org/2000/svg">
<path d="M17.75 21.212L15.8075 19.2695L14.75 20.327L17.75 23.327L23.75 17.327L22.6925 16.2695L17.75 21.212ZM12.5 17.7695L10.8958 17.0098C10.2549 16.7045 9.71338 16.2242 9.33372 15.6244C8.95405 15.0246 8.7517 14.3297 8.75 13.6198V8.76953H16.25V13.6205C16.2483 14.3304 16.0459 15.0253 15.6663 15.6252C15.2866 16.225 14.7451 16.7052 14.1042 17.0105L12.5 17.7695ZM10.25 10.2695V13.6205C10.2512 14.0463 10.3727 14.463 10.6005 14.8226C10.8284 15.1823 11.1533 15.4701 11.5378 15.653L12.5 16.109L13.4623 15.6538C13.8468 15.4708 14.1718 15.1829 14.3997 14.8231C14.6275 14.4633 14.749 14.0464 14.75 13.6205V10.2695H10.25ZM3.59 13.7615C3.80444 13.6166 3.97773 13.4186 4.09301 13.1869C4.20829 12.9551 4.26164 12.6975 4.24788 12.439C4.23411 12.1805 4.15369 11.93 4.01445 11.7118C3.8752 11.4937 3.68186 11.3152 3.45324 11.1939C3.22461 11.0725 2.96847 11.0124 2.70973 11.0193C2.45098 11.0263 2.19844 11.1001 1.97666 11.2335C1.75487 11.367 1.57139 11.5555 1.44406 11.7809C1.31673 12.0062 1.24987 12.2607 1.25 12.5195C1.25 13.1113 1.595 13.6175 2.093 13.862C2.34206 15.8375 3.14964 17.7009 4.4209 19.2333C5.69215 20.7657 7.37429 21.9036 9.26975 22.5133L9.73025 21.0853C8.12019 20.5681 6.68931 19.6059 5.60291 18.31C4.51651 17.014 3.81818 15.4372 3.59 13.7615ZM22.9078 11.177C22.6587 9.20157 21.8511 7.3382 20.5799 5.80576C19.3086 4.27332 17.6265 3.13545 15.731 2.52578L15.2705 3.95378C16.8806 4.47097 18.3114 5.43313 19.3978 6.72908C20.4842 8.02504 21.1818 9.60191 21.41 11.2775C21.1956 11.4225 21.0223 11.6205 20.907 11.8522C20.7917 12.0839 20.7384 12.3416 20.7521 12.6001C20.7659 12.8585 20.8463 13.109 20.9856 13.3272C21.1248 13.5454 21.3181 13.7239 21.5468 13.8452C21.7754 13.9666 22.0315 14.0267 22.2903 14.0197C22.549 14.0128 22.8016 13.939 23.0233 13.8055C23.2451 13.6721 23.4286 13.4835 23.5559 13.2582C23.6833 13.0328 23.7501 12.7784 23.75 12.5195C23.7498 12.2393 23.6707 11.9647 23.5218 11.7273C23.3728 11.4898 23.16 11.2991 22.9078 11.177ZM12.5 1.26953C11.9082 1.26953 11.402 1.61453 11.1575 2.11253C9.18213 2.36153 7.31882 3.169 5.78639 4.44012C4.25396 5.71123 3.11603 7.39321 2.50625 9.28853L3.93425 9.75053C4.45132 8.14034 5.41342 6.7093 6.70939 5.62276C8.00535 4.53622 9.58229 3.83852 11.258 3.61028C11.403 3.82459 11.6011 3.99773 11.8328 4.11287C12.0646 4.22801 12.3222 4.28124 12.5806 4.26738C12.839 4.25352 13.0894 4.17305 13.3075 4.03378C13.5256 3.89451 13.704 3.70118 13.8253 3.47259C13.9466 3.244 14.0066 2.98792 13.9997 2.72923C13.9927 2.47055 13.919 2.21807 13.7856 1.99632C13.6522 1.77457 13.4637 1.59111 13.2384 1.46375C13.0132 1.3364 12.7588 1.26949 12.5 1.26953Z" fill="#EDEDED"/>
</svg>
