<svg width="23" height="23" viewBox="0 0 23 23" fill="none" xmlns="http://www.w3.org/2000/svg">
<path d="M16.75 20.212L14.8075 18.2695L13.75 19.327L16.75 22.327L22.75 16.327L21.6925 15.2695L16.75 20.212ZM11.5 16.7695L9.89575 16.0098C9.25488 15.7045 8.71338 15.2242 8.33372 14.6244C7.95405 14.0246 7.7517 13.3297 7.75 12.6198V7.76953H15.25V12.6205C15.2483 13.3304 15.0459 14.0253 14.6663 14.6252C14.2866 15.225 13.7451 15.7052 13.1042 16.0105L11.5 16.7695ZM9.25 9.26953V12.6205C9.25115 13.0463 9.37267 13.463 9.60052 13.8226C9.82838 14.1823 10.1533 14.4701 10.5378 14.653L11.5 15.109L12.4623 14.6538C12.8468 14.4708 13.1718 14.1829 13.3997 13.8231C13.6275 13.4633 13.749 13.0464 13.75 12.6205V9.26953H9.25ZM2.59 12.7615C2.80444 12.6166 2.97773 12.4186 3.09301 12.1869C3.20829 11.9551 3.26164 11.6975 3.24788 11.439C3.23411 11.1805 3.15369 10.93 3.01445 10.7118C2.8752 10.4937 2.68186 10.3152 2.45324 10.1939C2.22461 10.0725 1.96847 10.0124 1.70973 10.0193C1.45098 10.0263 1.19844 10.1001 0.976655 10.2335C0.75487 10.367 0.571391 10.5555 0.444058 10.7809C0.316726 11.0062 0.249873 11.2607 0.25 11.5195C0.25 12.1113 0.595 12.6175 1.093 12.862C1.34206 14.8375 2.14964 16.7009 3.4209 18.2333C4.69215 19.7657 6.37429 20.9036 8.26975 21.5133L8.73025 20.0853C7.12019 19.5681 5.68931 18.6059 4.60291 17.31C3.51651 16.014 2.81818 14.4372 2.59 12.7615ZM21.9078 10.177C21.6587 8.20157 20.8511 6.3382 19.5799 4.80576C18.3086 3.27332 16.6265 2.13545 14.731 1.52578L14.2705 2.95378C15.8806 3.47097 17.3114 4.43313 18.3978 5.72908C19.4842 7.02504 20.1818 8.60191 20.41 10.2775C20.1956 10.4225 20.0223 10.6205 19.907 10.8522C19.7917 11.0839 19.7384 11.3416 19.7521 11.6001C19.7659 11.8585 19.8463 12.109 19.9856 12.3272C20.1248 12.5454 20.3181 12.7239 20.5468 12.8452C20.7754 12.9666 21.0315 13.0267 21.2903 13.0197C21.549 13.0128 21.8016 12.939 22.0233 12.8055C22.2451 12.6721 22.4286 12.4835 22.5559 12.2582C22.6833 12.0328 22.7501 11.7784 22.75 11.5195C22.7498 11.2393 22.6707 10.9647 22.5218 10.7273C22.3728 10.4898 22.16 10.2991 21.9078 10.177ZM11.5 0.269531C10.9082 0.269531 10.402 0.614531 10.1575 1.11253C8.18213 1.36153 6.31882 2.169 4.78639 3.44012C3.25396 4.71123 2.11603 6.39321 1.50625 8.28853L2.93425 8.75053C3.45132 7.14034 4.41342 5.7093 5.70939 4.62276C7.00535 3.53622 8.58229 2.83852 10.258 2.61028C10.403 2.82459 10.6011 2.99773 10.8328 3.11287C11.0646 3.22801 11.3222 3.28124 11.5806 3.26738C11.839 3.25352 12.0894 3.17305 12.3075 3.03378C12.5256 2.89451 12.704 2.70118 12.8253 2.47259C12.9466 2.244 13.0066 1.98792 12.9997 1.72923C12.9927 1.47055 12.919 1.21807 12.7856 0.996318C12.6522 0.774571 12.4637 0.591105 12.2384 0.463752C12.0132 0.336399 11.7588 0.269491 11.5 0.269531Z" fill="#EDEDED"/>
</svg>
