<svg width="20" height="24" viewBox="0 0 20 24" fill="none" xmlns="http://www.w3.org/2000/svg">
<path d="M10.3802 14.505H10.4327C11.5577 14.535 12.4577 15.45 12.4577 16.575C12.4577 17.535 11.8052 18.3375 10.9202 18.5775V19.4175C10.9202 19.7175 10.6802 19.9575 10.3802 19.9575C10.0802 19.9575 9.84023 19.7175 9.84023 19.4175V18.5775C9.39961 18.4589 9.0103 18.1985 8.73241 17.8366C8.45452 17.4747 8.30352 17.0313 8.30273 16.575C8.30273 16.275 8.54273 16.035 8.84273 16.035C9.14273 16.035 9.38273 16.275 9.38273 16.575C9.38273 17.13 9.82523 17.5725 10.3727 17.5725C10.9202 17.5725 11.3702 17.1225 11.3702 16.575C11.3702 16.0275 10.9202 15.5775 10.3727 15.5775H10.3202C9.7807 15.5629 9.26813 15.3384 8.89141 14.9519C8.51469 14.5654 8.30351 14.0472 8.30273 13.5075C8.30273 12.5475 8.95523 11.745 9.84023 11.505V10.665C9.84023 10.365 10.0802 10.125 10.3802 10.125C10.6802 10.125 10.9202 10.365 10.9202 10.665V11.505C11.8052 11.745 12.4577 12.5475 12.4577 13.5075C12.4577 13.8075 12.2177 14.0475 11.9177 14.0475C11.6177 14.0475 11.3777 13.8075 11.3777 13.5075C11.3777 12.96 10.9277 12.51 10.3802 12.51C9.83273 12.51 9.38273 12.96 9.38273 13.5075C9.38273 14.055 9.83273 14.505 10.3802 14.505Z" fill="#EDEDED"/>
<path d="M6.399 3.82221L8.4885 6.26721L8.26275 6.51921C3.96225 7.48371 0.75 11.3245 0.75 15.916C0.75 19.9525 4.026 23.2285 8.0625 23.2285H12.69C16.7265 23.2285 20.0025 19.9532 20.0025 15.9167C20.01 11.3245 16.7978 7.48371 12.4973 6.51921C12.5149 6.36072 12.4863 6.2005 12.4148 6.05796L14.1923 4.02321L14.307 3.84621C14.441 3.55396 14.4753 3.22578 14.4046 2.91214C14.3338 2.59851 14.1621 2.31679 13.9156 2.11031C13.6692 1.90384 13.3617 1.78404 13.0406 1.76934C12.7194 1.75464 12.4023 1.84586 12.138 2.02896L11.5058 1.27896C11.3639 1.12025 11.1902 0.993198 10.996 0.906096C10.8018 0.818994 10.5914 0.773793 10.3786 0.77344C10.1657 0.773086 9.9552 0.817587 9.7607 0.904042C9.5662 0.990498 9.3921 1.11697 9.24975 1.27521L8.5875 2.01471C8.32391 1.8278 8.00608 1.73294 7.68317 1.74482C7.36025 1.7567 7.05025 1.87464 6.8011 2.08041C6.55196 2.28619 6.37755 2.56832 6.30487 2.88317C6.23218 3.19802 6.26527 3.52805 6.399 3.82221ZM9.24825 4.86096L7.97625 3.39096C8.27182 3.5331 8.60612 3.57339 8.92699 3.50555C9.24786 3.43771 9.53726 3.26556 9.75 3.01596L10.35 2.23746L11.016 3.02646C11.2237 3.26794 11.5038 3.43587 11.8146 3.5052C12.1255 3.57453 12.4504 3.54156 12.741 3.41121L11.475 4.86096H9.24825ZM2.25 15.916C2.25 11.425 5.889 7.78596 10.38 7.78596C14.871 7.78596 18.51 11.425 18.5025 15.9145V15.916C18.5019 17.4573 17.8893 18.9354 16.7994 20.0254C15.7095 21.1153 14.2314 21.7279 12.69 21.7285H8.0625C6.52111 21.7279 5.04303 21.1153 3.9531 20.0254C2.86317 18.9354 2.2506 17.4573 2.25 15.916Z" fill="#EDEDED"/>
</svg>
