<svg width="30" height="30" viewBox="0 0 30 30" fill="none" xmlns="http://www.w3.org/2000/svg">
<path d="M16.875 20C16.875 20.4973 16.6775 20.9742 16.3258 21.3258C15.9742 21.6775 15.4973 21.875 15 21.875C14.5027 21.875 14.0258 21.6775 13.6742 21.3258C13.3225 20.9742 13.125 20.4973 13.125 20C13.125 19.5027 13.3225 19.0258 13.6742 18.6742C14.0258 18.3225 14.5027 18.125 15 18.125C15.4973 18.125 15.9742 18.3225 16.3258 18.6742C16.6775 19.0258 16.875 19.5027 16.875 20Z" fill="#EDEDED"/>
<path d="M17.9338 0.824219L21.9088 6.39422L24.53 5.50047L26.9225 12.4992H28.125V27.4992H1.875V12.4992H2.5125V12.4867L3.3225 12.4942L17.9338 0.824219ZM11.7463 12.4992H24.2812L22.985 8.70797L21.0825 9.31672L11.7463 12.4992ZM9.79875 10.5205L19.4375 7.23672L17.4325 4.42422L9.79875 10.5205ZM6.875 14.9992H4.375V17.4992C5.03804 17.4992 5.67393 17.2358 6.14277 16.767C6.61161 16.2981 6.875 15.6623 6.875 14.9992ZM19.375 19.9992C19.375 19.4247 19.2618 18.8558 19.042 18.325C18.8221 17.7942 18.4998 17.3119 18.0936 16.9056C17.6873 16.4994 17.205 16.1771 16.6742 15.9572C16.1434 15.7374 15.5745 15.6242 15 15.6242C14.4255 15.6242 13.8566 15.7374 13.3258 15.9572C12.795 16.1771 12.3127 16.4994 11.9064 16.9056C11.5002 17.3119 11.1779 17.7942 10.958 18.325C10.7382 18.8558 10.625 19.4247 10.625 19.9992C10.625 21.1595 11.0859 22.2723 11.9064 23.0928C12.7269 23.9133 13.8397 24.3742 15 24.3742C16.1603 24.3742 17.2731 23.9133 18.0936 23.0928C18.9141 22.2723 19.375 21.1595 19.375 19.9992ZM25.625 24.9992V22.4992C24.962 22.4992 24.3261 22.7626 23.8572 23.2315C23.3884 23.7003 23.125 24.3362 23.125 24.9992H25.625ZM23.125 14.9992C23.125 15.6623 23.3884 16.2981 23.8572 16.767C24.3261 17.2358 24.962 17.4992 25.625 17.4992V14.9992H23.125ZM4.375 24.9992H6.875C6.875 24.3362 6.61161 23.7003 6.14277 23.2315C5.67393 22.7626 5.03804 22.4992 4.375 22.4992V24.9992Z" fill="#EDEDED"/>
</svg>
