<svg width="25" height="25" viewBox="0 0 25 25" fill="none" xmlns="http://www.w3.org/2000/svg">
<path fill-rule="evenodd" clip-rule="evenodd" d="M5.12469 9.28906C5.12469 7.43255 5.86218 5.65207 7.17494 4.33931C8.48769 3.02656 10.2682 2.28906 12.1247 2.28906C13.9812 2.28906 15.7617 3.02656 17.0744 4.33931C18.3872 5.65207 19.1247 7.43255 19.1247 9.28906V13.0531L20.9467 16.6971C21.0306 16.8648 21.0702 17.0512 21.0617 17.2385C21.0533 17.4258 20.9971 17.6079 20.8985 17.7674C20.7999 17.9269 20.6622 18.0586 20.4984 18.1499C20.3346 18.2412 20.1502 18.2891 19.9627 18.2891H15.9987C15.7762 19.1473 15.2751 19.9074 14.5739 20.45C13.8728 20.9926 13.0113 21.287 12.1247 21.287C11.2381 21.287 10.3766 20.9926 9.67542 20.45C8.97426 19.9074 8.47312 19.1473 8.25069 18.2891H4.28669C4.09916 18.2891 3.91475 18.2412 3.75095 18.1499C3.58716 18.0586 3.44942 17.9269 3.35083 17.7674C3.25224 17.6079 3.19606 17.4258 3.18763 17.2385C3.17921 17.0512 3.21881 16.8648 3.30269 16.6971L5.12469 13.0531V9.28906ZM10.3927 18.2891C10.5682 18.5931 10.8207 18.8455 11.1247 19.0211C11.4288 19.1966 11.7736 19.289 12.1247 19.289C12.4757 19.289 12.8206 19.1966 13.1246 19.0211C13.4287 18.8455 13.6811 18.5931 13.8567 18.2891H10.3927ZM12.1247 4.28906C10.7986 4.28906 9.52683 4.81585 8.58915 5.75353C7.65147 6.69121 7.12469 7.96298 7.12469 9.28906V13.0531C7.12467 13.3634 7.05243 13.6695 6.91369 13.9471L5.74369 16.2891H18.5067L17.3367 13.9471C17.1976 13.6696 17.125 13.3635 17.1247 13.0531V9.28906C17.1247 7.96298 16.5979 6.69121 15.6602 5.75353C14.7225 4.81585 13.4508 4.28906 12.1247 4.28906Z" fill="#00A6A6"/>
</svg>
