<svg width="26" height="26" viewBox="0 0 26 26" fill="none" xmlns="http://www.w3.org/2000/svg">
<g clip-path="url(#clip0_921_750)">
<path d="M17.6755 5.51576C18.615 5.51576 19.375 4.73426 19.375 3.76826C19.375 2.80826 18.6145 2.02626 17.6755 2.02626C16.743 2.02626 15.982 2.80776 15.982 3.76826C15.982 4.73426 16.7425 5.51576 17.6755 5.51576ZM18.9385 5.90676H16.463L12.244 1.56626C12.1671 1.48146 12.0737 1.41318 11.9696 1.36557C11.8654 1.31796 11.7527 1.29201 11.6382 1.2893C11.5238 1.28659 11.4099 1.30717 11.3037 1.34979C11.1974 1.39242 11.1009 1.4562 11.02 1.53726C10.8527 1.70205 10.7557 1.92531 10.7496 2.1601C10.7434 2.39489 10.8285 2.62292 10.987 2.79626L15.396 7.33776V22.3888C15.396 22.9348 15.821 23.3713 16.346 23.3713C16.877 23.3713 17.3015 22.9348 17.3015 22.3888V14.2253H18.0725L18.0785 22.3893C18.0785 22.9353 18.5085 23.3718 19.0335 23.3718C19.56 23.3718 19.984 22.9353 19.984 22.3893L19.9785 7.33876L24.388 2.79726C24.5461 2.62368 24.6309 2.39563 24.6246 2.16091C24.6182 1.92619 24.5213 1.70304 24.354 1.53826C24.2733 1.457 24.1768 1.39305 24.0705 1.3503C23.9642 1.30755 23.8503 1.28691 23.7358 1.28962C23.6212 1.29234 23.5085 1.31835 23.4043 1.36609C23.3002 1.41382 23.2068 1.48227 23.13 1.56726L18.9385 5.90676ZM9.96901 12.5468C9.84064 12.4104 9.68567 12.3018 9.51368 12.2276C9.34168 12.1535 9.15631 12.1154 8.96901 12.1158H5.41951C5.02851 12.1158 4.67651 12.2768 4.42501 12.5468L0.864514 16.2093C0.705672 16.3821 0.61992 16.6098 0.625233 16.8445C0.630546 17.0792 0.726512 17.3027 0.893014 17.4683C1.23901 17.8073 1.79301 17.7958 2.11701 17.4393L4.87751 14.5993V18.3933H1.78151C1.21201 18.3933 0.752514 18.8643 0.752514 19.4513C0.752514 19.7558 0.864514 20.0263 1.06601 20.2218L4.55301 23.8088C4.86051 24.2748 5.46401 24.4243 5.94501 24.1363C6.45301 23.8378 6.62151 23.1768 6.33051 22.6598L4.34101 20.6183L4.38001 20.6238H10.0915L8.09651 22.6648C7.81151 23.1823 7.97901 23.8433 8.48151 24.1418C8.96251 24.4298 9.57201 24.2808 9.87951 23.8148L13.3665 20.2278C13.4679 20.1271 13.5479 20.0069 13.6017 19.8745C13.6555 19.7421 13.682 19.6002 13.6795 19.4573C13.6795 18.8703 13.221 18.3998 12.6515 18.3998H9.56051V14.6453L12.271 17.4448C12.601 17.8018 13.148 17.8133 13.4945 17.4738C13.6611 17.3084 13.7571 17.0849 13.7624 16.8503C13.7678 16.6156 13.6819 16.388 13.523 16.2153L9.96901 12.5468ZM7.23101 11.7418C8.16401 11.7418 8.91851 10.9608 8.91851 9.99976C8.91851 9.03376 8.16401 8.25776 7.23101 8.25776C6.29701 8.25776 5.53651 9.03376 5.53651 9.99976C5.53651 10.9608 6.29751 11.7418 7.23101 11.7418Z" fill="#EDEDED"/>
</g>
<defs>
<clipPath id="clip0_921_750">
<rect width="25" height="25" fill="white" transform="translate(0.125 0.289062)"/>
</clipPath>
</defs>
</svg>
