<svg width="30" height="30" viewBox="0 0 30 30" fill="none" xmlns="http://www.w3.org/2000/svg">
<g clip-path="url(#clip0_855_5986)">
<path d="M15.75 7.50077H25.5075C27.1605 7.50077 28.5 8.84477 28.5 10.4963V21.0008H18V24.0008H25.5075C27.1605 24.0008 28.5 25.3328 28.5 27.0008V30.0008H1.5V27.0008C1.5 25.3433 2.8395 24.0008 4.4925 24.0008H12V21.0008H1.5V10.4963C1.5 8.84177 2.8395 7.50077 4.4925 7.50077H14.25V4.37327C13.7496 4.19635 13.3278 3.84822 13.0593 3.39041C12.7907 2.9326 12.6927 2.3946 12.7824 1.87147C12.8722 1.34835 13.144 0.873801 13.5498 0.531695C13.9556 0.189588 14.4692 0.00195313 15 0.00195312C15.5308 0.00195313 16.0444 0.189588 16.4502 0.531695C16.856 0.873801 17.1278 1.34835 17.2176 1.87147C17.3073 2.3946 17.2093 2.9326 16.9407 3.39041C16.6722 3.84822 16.2504 4.19635 15.75 4.37327V7.50077ZM9.75 16.5008C10.3467 16.5008 10.919 16.2637 11.341 15.8418C11.7629 15.4198 12 14.8475 12 14.2508C12 13.654 11.7629 13.0817 11.341 12.6598C10.919 12.2378 10.3467 12.0008 9.75 12.0008C9.15326 12.0008 8.58097 12.2378 8.15901 12.6598C7.73705 13.0817 7.5 13.654 7.5 14.2508C7.5 14.8475 7.73705 15.4198 8.15901 15.8418C8.58097 16.2637 9.15326 16.5008 9.75 16.5008ZM20.25 16.5008C20.8467 16.5008 21.419 16.2637 21.841 15.8418C22.2629 15.4198 22.5 14.8475 22.5 14.2508C22.5 13.654 22.2629 13.0817 21.841 12.6598C21.419 12.2378 20.8467 12.0008 20.25 12.0008C19.6533 12.0008 19.081 12.2378 18.659 12.6598C18.2371 13.0817 18 13.654 18 14.2508C18 14.8475 18.2371 15.4198 18.659 15.8418C19.081 16.2637 19.6533 16.5008 20.25 16.5008Z" fill="white"/>
</g>
<defs>
<clipPath id="clip0_855_5986">
<rect width="30" height="30" fill="white"/>
</clipPath>
</defs>
</svg>
