<svg width="25" height="25" viewBox="0 0 25 25" fill="none" xmlns="http://www.w3.org/2000/svg">
<path opacity="0.5" fill-rule="evenodd" clip-rule="evenodd" d="M14.4043 2.44106C14.0343 2.28906 13.5643 2.28906 12.6253 2.28906C11.6863 2.28906 11.2173 2.28906 10.8463 2.44106C10.6022 2.54081 10.3802 2.68784 10.1932 2.87371C10.0061 3.05957 9.85763 3.2806 9.75632 3.52406C9.66232 3.74706 9.62632 4.00806 9.61132 4.38706C9.60418 4.66156 9.52738 4.92975 9.38814 5.16642C9.2489 5.40309 9.05179 5.60049 8.81532 5.74006C8.57406 5.87417 8.30286 5.94521 8.02684 5.94661C7.75082 5.948 7.47892 5.87971 7.23632 5.74806C6.89832 5.57006 6.65332 5.47206 6.41132 5.44006C5.8819 5.37099 5.34658 5.51326 4.92132 5.83606C4.60332 6.07806 4.36832 6.48206 3.89932 7.28906C3.42932 8.09606 3.19532 8.49906 3.14232 8.89406C3.07232 9.42006 3.21632 9.95206 3.54232 10.3731C3.69032 10.5651 3.89932 10.7261 4.22232 10.9281C4.69932 11.2251 5.00532 11.7311 5.00532 12.2891C5.00532 12.8471 4.69932 13.3531 4.22332 13.6491C3.89932 13.8521 3.69032 14.0131 3.54132 14.2051C3.38088 14.4133 3.26306 14.6511 3.1946 14.9048C3.12614 15.1586 3.10837 15.4234 3.14232 15.6841C3.19532 16.0781 3.42932 16.4821 3.89932 17.2891C4.36932 18.0961 4.60332 18.4991 4.92132 18.7421C5.34532 19.0651 5.88132 19.2071 6.41132 19.1381C6.65332 19.1061 6.89832 19.0081 7.23632 18.8301C7.47904 18.6982 7.75113 18.6298 8.02734 18.6312C8.30355 18.6326 8.57494 18.7038 8.81632 18.8381C9.30232 19.1181 9.59032 19.6331 9.61132 20.1911C9.62632 20.5711 9.66232 20.8311 9.75632 21.0541C9.96032 21.5441 10.3523 21.9341 10.8463 22.1371C11.2163 22.2891 11.6863 22.2891 12.6253 22.2891C13.5643 22.2891 14.0343 22.2891 14.4043 22.1371C14.6484 22.0373 14.8704 21.8903 15.0575 21.7044C15.2445 21.5186 15.393 21.2975 15.4943 21.0541C15.5883 20.8311 15.6243 20.5711 15.6393 20.1911C15.6593 19.6331 15.9483 19.1171 16.4353 18.8381C16.6766 18.704 16.9478 18.6329 17.2238 18.6315C17.4998 18.6301 17.7717 18.6984 18.0143 18.8301C18.3523 19.0081 18.5973 19.1061 18.8393 19.1381C19.3693 19.2081 19.9053 19.0651 20.3293 18.7421C20.6473 18.5001 20.8823 18.0961 21.3513 17.2891C21.8213 16.4821 22.0553 16.0791 22.1083 15.6841C22.1421 15.4233 22.1242 15.1585 22.0556 14.9047C21.9869 14.651 21.8689 14.4132 21.7083 14.2051C21.5603 14.0131 21.3513 13.8521 21.0283 13.6501C20.5513 13.3531 20.2453 12.8471 20.2453 12.2891C20.2453 11.7311 20.5513 11.2251 21.0273 10.9291C21.3513 10.7261 21.5603 10.5651 21.7093 10.3731C21.8697 10.1649 21.9876 9.92706 22.056 9.67328C22.1245 9.4195 22.1423 9.15471 22.1083 8.89406C22.0553 8.50006 21.8213 8.09606 21.3513 7.28906C20.8813 6.48206 20.6473 6.07906 20.3293 5.83606C19.904 5.51326 19.3687 5.37099 18.8393 5.44006C18.5973 5.47206 18.3523 5.57006 18.0143 5.74806C17.7716 5.87989 17.4995 5.94828 17.2233 5.94688C16.9471 5.94548 16.6757 5.87434 16.4343 5.74006C16.198 5.60036 16.0011 5.40291 15.8621 5.16625C15.723 4.92959 15.6463 4.66147 15.6393 4.38706C15.6243 4.00706 15.5883 3.74706 15.4943 3.52406C15.393 3.2806 15.2445 3.05957 15.0575 2.87371C14.8704 2.68784 14.6484 2.54081 14.4043 2.44106Z" fill="#00A6A6"/>
<path d="M15.6476 12.2891C15.6476 13.9461 14.2936 15.2891 12.6246 15.2891C10.9556 15.2891 9.60156 13.9461 9.60156 12.2891C9.60156 10.6321 10.9546 9.28906 12.6246 9.28906C14.2946 9.28906 15.6476 10.6321 15.6476 12.2891Z" fill="#00A6A6"/>
</svg>
