<svg width="20" height="19" viewBox="0 0 20 19" fill="none" xmlns="http://www.w3.org/2000/svg">
<path d="M16.875 6.25H12.75V2.125C12.7495 1.57816 12.532 1.05387 12.1453 0.667195C11.7586 0.28052 11.2343 0.063046 10.6875 0.0625H9.22106C8.89048 0.0639034 8.57135 0.183773 8.3216 0.400356C8.07184 0.616939 7.908 0.915882 7.85981 1.24294L7.27887 5.31087L4.81969 9H0.375V18.625H14.8125C16.0883 18.6232 17.3113 18.1156 18.2134 17.2134C19.1156 16.3113 19.6232 15.0883 19.625 13.8125V9C19.6241 8.27093 19.3341 7.57199 18.8185 7.05646C18.303 6.54093 17.6041 6.25091 16.875 6.25ZM4.5 17.25H1.75V10.375H4.5V17.25ZM18.25 13.8125C18.2489 14.7238 17.8864 15.5976 17.242 16.242C16.5976 16.8864 15.7238 17.2489 14.8125 17.25H5.875V9.89581L8.59612 5.81413L9.22175 1.4375H10.6875C10.8698 1.4375 11.0447 1.50993 11.1736 1.63886C11.3026 1.7678 11.375 1.94266 11.375 2.125V7.625H16.875C17.2395 7.62555 17.5889 7.77059 17.8467 8.02833C18.1044 8.28608 18.2495 8.6355 18.25 9V13.8125Z" fill="#EDEDED"/>
</svg>
