<svg width="47" height="53" viewBox="0 0 47 53" fill="none" xmlns="http://www.w3.org/2000/svg">
<path d="M39.1667 28.7257H37.3911L32.1689 33.9479H37.1561L41.7778 39.1702H5.22222L9.87 33.9479H15.2228L10.0006 28.7257H7.83333L0 36.5591V47.0035C0 48.3885 0.550197 49.7168 1.52955 50.6962C2.50891 51.6755 3.8372 52.2257 5.22222 52.2257H41.7778C43.1628 52.2257 44.4911 51.6755 45.4704 50.6962C46.4498 49.7168 47 48.3885 47 47.0035V36.5591L39.1667 28.7257ZM36.5556 15.5396L23.6306 28.4646L14.3611 19.2213L27.3122 6.29628L36.5556 15.5396ZM25.4844 0.760727L8.85167 17.3935C8.60961 17.6351 8.41757 17.922 8.28654 18.2379C8.15551 18.5537 8.08806 18.8924 8.08806 19.2343C8.08806 19.5763 8.15551 19.9149 8.28654 20.2308C8.41757 20.5467 8.60961 20.8336 8.85167 21.0752L21.7767 33.9479C22.795 35.0185 24.44 35.0185 25.4583 33.9479L42.065 17.3935C42.3071 17.1519 42.4991 16.865 42.6301 16.5491C42.7612 16.2333 42.8286 15.8946 42.8286 15.5527C42.8286 15.2107 42.7612 14.8721 42.6301 14.5562C42.4991 14.2403 42.3071 13.9534 42.065 13.7118L29.14 0.786838C28.9044 0.540353 28.6217 0.343701 28.3087 0.208549C27.9957 0.0733972 27.6587 0.00250029 27.3177 6.4948e-05C26.9768 -0.00237039 26.6388 0.0637056 26.3239 0.194372C26.009 0.325038 25.7235 0.517633 25.4844 0.760727Z" fill="#00E6E6"/>
</svg>
