<svg width="20" height="21" viewBox="0 0 20 21" fill="none" xmlns="http://www.w3.org/2000/svg">
<g clip-path="url(#clip0_751_6440)">
<path d="M13.536 1.88913C13.3618 1.71499 13.1551 1.57685 12.9276 1.4826C12.7001 1.38835 12.4563 1.33984 12.21 1.33984C11.9638 1.33984 11.7199 1.38835 11.4924 1.4826C11.2649 1.57685 11.0582 1.71499 10.8841 1.88913L8.67533 4.09851C8.30797 4.46562 8.06406 4.93803 7.97748 5.45011C7.8909 5.96219 7.96595 6.48853 8.19221 6.95601L4.76283 8.66788C4.29684 8.90063 3.88445 9.22791 3.55194 9.62886C3.21943 10.0298 2.9741 10.4956 2.83158 10.9966L0.769081 18.2573C0.70214 18.4932 0.69943 18.7427 0.761231 18.98C0.823032 19.2174 0.947101 19.4339 1.12061 19.6072C1.29412 19.7805 1.51077 19.9044 1.74817 19.9659C1.98557 20.0274 2.2351 20.0245 2.47096 19.9573L9.72783 17.8916C10.2284 17.7492 10.6939 17.5041 11.0946 17.1719C11.4953 16.8397 11.8225 16.4278 12.0553 15.9623L13.7678 12.5329C14.2356 12.7595 14.7622 12.8352 15.2749 12.7493C15.7875 12.6634 16.2607 12.4202 16.6291 12.0535L18.8385 9.84413C19.0126 9.67002 19.1507 9.4633 19.245 9.2358C19.3392 9.00829 19.3877 8.76445 19.3877 8.51819C19.3877 8.27194 19.3392 8.02809 19.245 7.80059C19.1507 7.57308 19.0126 7.36637 18.8385 7.19226L13.536 1.88913ZM11.7678 2.77288C11.8259 2.71477 11.8948 2.66867 11.9707 2.63722C12.0466 2.60577 12.1279 2.58958 12.21 2.58958C12.2922 2.58958 12.3735 2.60577 12.4494 2.63722C12.5252 2.66867 12.5942 2.71477 12.6522 2.77288L17.9553 8.07601C18.0725 8.19321 18.1383 8.35215 18.1383 8.51788C18.1383 8.68361 18.0725 8.84255 17.9553 8.95976L15.7453 11.1698L9.55783 4.98226L11.7678 2.77288ZM9.55846 7.63413L13.0897 11.1654C13.0423 11.2129 13.0028 11.2678 12.9728 11.3279L10.9378 15.4029C10.7827 15.7133 10.5647 15.988 10.2976 16.2096C10.0306 16.4311 9.7203 16.5947 9.38658 16.6898L3.14596 18.4654L6.98221 14.6291C7.38135 14.8193 7.83483 14.8623 8.26261 14.7506C8.6904 14.639 9.06498 14.3798 9.32026 14.0188C9.57554 13.6578 9.69509 13.2183 9.65783 12.7777C9.62056 12.3372 9.42887 11.924 9.11658 11.611C8.80399 11.2973 8.39044 11.1044 7.94921 11.0664C7.50799 11.0284 7.06756 11.1478 6.70595 11.4035C6.34435 11.6592 6.08491 12.0346 5.9736 12.4632C5.8623 12.8919 5.9063 13.3461 6.09783 13.7454L2.26033 17.5829L4.03533 11.3379C4.1302 11.004 4.29357 10.6935 4.51502 10.4262C4.73647 10.1589 5.01115 9.94069 5.32158 9.78538L9.39596 7.75101C9.45609 7.72084 9.51097 7.68116 9.55846 7.63351" fill="#EDEDED"/>
</g>
<defs>
<clipPath id="clip0_751_6440">
<rect width="20" height="20" fill="white" transform="translate(0 0.726562)"/>
</clipPath>
</defs>
</svg>
